<svg width="36" height="36" viewBox="-1 -1 37 38" fill="none" xmlns="http://www.w3.org/2000/svg">
  <!-- Blue W -->
  <path d="M6.75182 19.2623C8.17857 15.7968 9.35994 12.2965 10.643 8.83825C11.4116 6.76421 13.2984 5.99764 15.1011 7.03832C15.9591 7.53444 16.3132 8.38324 16.5252 9.33254C17.3637 13.0792 18.2108 16.8253 19.0668 20.5707C19.0974 20.7059 19.164 20.8338 19.292 21.171C20.0422 19.17 20.7319 17.3281 21.5057 15.2614C22.7169 17.7785 24.2067 19.8663 24.8167 22.4191C25.1813 23.9431 24.6414 25.2825 24.1472 26.6439C23.4364 28.6147 22.7353 30.59 22.0053 32.5526C21.3296 34.3671 20.1929 35.1364 18.4892 34.9839C17.0055 34.8505 15.9574 33.7349 15.5639 31.9687C14.7602 28.3588 13.9268 24.7553 13.1012 21.1509C13.0513 20.9334 12.9654 20.7242 12.8322 20.314C12.2695 21.8288 11.77 23.1728 11.2713 24.5168C10.7455 25.9257 10.2582 27.3492 9.69384 28.7407C9.15486 30.0665 8.12599 30.7846 6.75796 30.8669C5.38992 30.9491 4.30408 30.3497 3.59071 29.1135C3.38844 28.7427 3.24073 28.3423 3.15251 27.9258C2.4444 24.8512 1.75906 21.7713 1.05971 18.6977C0.789784 17.5099 0.481297 16.3221 0.231527 15.1344C0.0220716 14.1293 -0.197901 13.0905 0.314784 12.132C0.868658 11.0978 1.90454 10.6327 3.05699 10.8684C4.12355 11.0859 4.77908 11.8168 5.042 12.9013C5.48019 14.6976 5.89121 16.5003 6.30925 18.3021C6.37848 18.6209 6.45736 18.9416 6.75182 19.2623Z" fill="#08A5E3"/>
  <!-- Orange arrow/flag above the W's second peak -->
  <path d="M25.9791 21.2292C24.8021 18.7622 23.2623 16.6042 22.5778 14.0011C22.4166 13.388 22.392 12.7494 22.5936 12.1445C23.0414 10.8033 23.52 9.47295 23.9958 8.14356C24.0835 7.90326 24.2587 7.64561 24.0502 7.44186C23.8819 7.27557 23.6216 7.42541 23.4367 7.51404C22.4779 7.97088 21.6348 7.67941 20.9425 6.99325C20.2694 6.32627 20.202 5.44001 20.4587 4.52634C20.67 3.77438 21.2256 3.36871 21.8671 3.09187C24.058 2.1444 26.27 1.23529 28.4619 0.283247C30.0823 -0.42028 31.5494 0.205585 32.1295 1.93882C32.9025 4.24492 33.8928 6.47154 34.7815 8.73562C35.246 9.92339 34.8639 11.2025 33.8876 11.7973C32.8824 12.4058 31.7203 12.1135 30.8728 11.1185C30.6546 10.8617 30.616 10.2962 30.2006 10.3875C29.8807 10.4579 29.9649 10.9549 29.8501 11.2555C28.6836 14.4141 27.4917 17.5599 26.3007 20.7102C26.2499 20.8573 26.1368 20.9825 25.9791 21.2292Z" fill="#F18326"/>
</svg>
