<svg width="132" height="35" viewBox="0 0 132 35" fill="none" xmlns="http://www.w3.org/2000/svg">
<path d="M6.75182 19.2623C8.17857 15.7968 9.35994 12.2965 10.643 8.83825C11.4116 6.76421 13.2984 5.99764 15.1011 7.03832C15.9591 7.53444 16.3132 8.38324 16.5252 9.33254C17.3637 13.0792 18.2108 16.8253 19.0668 20.5707C19.0974 20.7059 19.164 20.8338 19.292 21.171C20.0422 19.17 20.7319 17.3281 21.5057 15.2614C22.7169 17.7785 24.2067 19.8663 24.8167 22.4191C25.1813 23.9431 24.6414 25.2825 24.1472 26.6439C23.4364 28.6147 22.7353 30.59 22.0053 32.5526C21.3296 34.3671 20.1929 35.1364 18.4892 34.9839C17.0055 34.8505 15.9574 33.7349 15.5639 31.9687C14.7602 28.3588 13.9268 24.7553 13.1012 21.1509C13.0513 20.9334 12.9654 20.7242 12.8322 20.314C12.2695 21.8288 11.77 23.1728 11.2713 24.5168C10.7455 25.9257 10.2582 27.3492 9.69384 28.7407C9.15486 30.0665 8.12599 30.7846 6.75796 30.8669C5.38992 30.9491 4.30408 30.3497 3.59071 29.1135C3.38844 28.7427 3.24073 28.3423 3.15251 27.9258C2.4444 24.8512 1.75906 21.7713 1.05971 18.6977C0.789784 17.5099 0.481297 16.3221 0.231527 15.1344C0.0220716 14.1293 -0.197901 13.0905 0.314784 12.132C0.868658 11.0978 1.90454 10.6327 3.05699 10.8684C4.12355 11.0859 4.77908 11.8168 5.042 12.9013C5.48019 14.6976 5.89121 16.5003 6.30925 18.3021C6.37848 18.6209 6.45736 18.9416 6.75182 19.2623Z" fill="#08A5E3"/>
<path d="M116.437 22.4582C116.858 20.905 117.276 19.3517 117.703 17.7985C117.914 17.031 118.141 16.2681 118.362 15.5052C118.726 14.2763 119.579 13.5591 120.742 13.4951C121.998 13.4238 122.891 13.9647 123.377 15.2311C124.191 17.3508 124.626 19.5939 125.275 21.7675C125.339 21.9813 125.414 22.1923 125.545 22.5898C126.151 20.4792 126.706 18.5468 127.258 16.6135C127.398 16.1228 127.506 15.6212 127.662 15.1361C128.071 13.8633 129.163 13.2457 130.378 13.5764C131.559 13.8971 132.226 14.9542 131.914 16.2745C131.359 18.6254 130.478 20.8739 129.747 23.17C129.205 24.8721 128.67 26.5807 128.044 28.25C127.274 30.2966 124.843 30.8019 123.493 29.2431C123.041 28.7214 122.841 28.0618 122.655 27.4067C122.101 25.4706 121.559 23.5318 120.844 21.5829C120.453 23.0037 120.067 24.4253 119.668 25.8434C119.405 26.7717 119.182 27.71 118.771 28.5908C118.318 29.562 117.631 30.0627 116.58 30.0892C115.464 30.1175 114.589 29.742 114.057 28.694C113.208 27.0202 112.811 25.1691 112.203 23.402C111.43 21.1526 110.746 18.8702 110.012 16.6052C109.726 15.7208 109.826 14.9286 110.442 14.2233C111.12 13.4467 111.974 13.3928 112.866 13.6102C113.545 13.7765 113.888 14.3412 114.115 14.9807C114.759 16.8026 115.194 18.6884 115.721 20.5468C115.902 21.1864 116.093 21.826 116.279 22.46L116.437 22.4582Z" fill="#08A5E3"/>
<path d="M45.901 18.9159C45.901 16.1474 45.8765 13.379 45.9133 10.6106C45.9273 9.54252 46.277 8.57403 47.298 8.08704C49.0069 7.27205 50.6703 8.45251 50.7106 10.554C50.7544 12.7797 50.7203 15.0063 50.7325 17.232C50.7325 17.4997 50.5932 17.8789 50.878 18.0104C51.1891 18.1548 51.3162 17.7528 51.4915 17.5664C52.5791 16.4325 53.6307 15.2703 54.7288 14.1648C55.6131 13.2749 56.9995 13.2274 57.783 13.9894C58.6945 14.8747 58.769 16.004 57.9715 17.1296C57.3668 17.9848 56.5798 18.6582 55.8085 19.3352C55.3703 19.7162 55.3703 20.0077 55.6622 20.4792C56.84 22.3622 57.9811 24.2709 59.1423 26.1659C59.6103 26.9288 59.7812 27.7072 59.4552 28.5953C58.8417 30.271 56.7384 30.6821 55.6411 29.2952C54.4326 27.773 53.6404 25.9676 52.5913 24.3358C52.3845 24.0132 52.2732 23.3225 51.835 23.5135C51.325 23.7337 50.7667 24.1658 50.7281 24.884C50.6826 25.7373 50.722 26.5962 50.6826 27.4505C50.6019 29.2276 49.552 30.2125 47.9228 30.0736C46.6854 29.9685 45.9124 28.9297 45.8966 27.2266C45.8703 24.4582 45.8896 21.6898 45.8896 18.9214L45.901 18.9159Z" fill="#08A5E3"/>
<path d="M43.1363 21.5334C43.0338 23.4193 43.0636 25.285 43.621 27.1178C43.9925 28.3394 43.6683 29.1087 42.6894 29.7501C41.8253 30.3156 40.8376 30.1685 39.9647 29.4239C39.5914 29.105 39.4389 28.3933 38.9393 28.4371C38.495 28.4755 38.0849 28.9031 37.6528 29.1471C35.773 30.2069 33.8046 30.4015 31.7731 29.7254C29.8319 29.0794 28.6182 27.2585 28.6409 25.1095C28.6449 24.1312 28.9545 23.1808 29.5228 22.4021C30.0911 21.6235 30.8872 21.0591 31.7907 20.7943C33.6311 20.2525 35.5214 19.8879 37.3829 19.4183C37.7334 19.3269 38.3136 19.4649 38.2759 18.8025C38.2426 18.2086 38.0419 17.6092 37.4162 17.4831C35.936 17.1844 34.2515 17.1506 33.4102 18.7458C32.859 19.792 32.1097 20.5211 30.8249 20.1584C29.7846 19.8642 29.2036 19.0483 29.3184 17.9345C29.5375 15.8111 30.8959 14.6517 32.6723 14.0313C35.1262 13.1733 37.6545 13.2026 40.111 14.0368C42.1057 14.7138 42.8611 16.4324 43.068 18.4571C43.1758 19.4786 43.1986 20.5079 43.1363 21.5334ZM35.1682 26.3604C37.0963 26.3759 38.311 25.2302 38.3355 23.3653C38.3355 23.1552 38.474 22.7358 38.0419 22.85C36.6975 23.2055 35.2717 23.2603 34.0184 23.9519C33.4777 24.2498 33.3909 24.7898 33.5496 25.3599C33.7844 26.206 34.4452 26.3467 35.1682 26.3604Z" fill="#08A5E3"/>
<path d="M75.5247 21.5005C75.5125 23.4192 75.5765 25.3078 76.1382 27.1744C76.5168 28.4398 76.0839 29.2914 75.0051 29.878C74.1681 30.3348 72.9753 30.1585 72.3408 29.2384C71.7274 28.3485 71.2892 28.4581 70.4645 28.9524C68.2069 30.3065 65.8092 30.6354 63.4052 29.327C60.9461 27.9885 60.3747 24.3548 62.1888 22.1784C62.9872 21.2209 64.0099 20.7732 65.1308 20.5C66.7083 20.1154 68.2902 19.7874 69.8633 19.4164C70.2042 19.336 70.7397 19.4393 70.7283 18.8573C70.7204 18.3145 70.5855 17.7764 70.0333 17.4995C68.8879 16.9239 66.8091 17.4402 66.0598 18.4954C65.8968 18.7239 65.7548 18.9696 65.6023 19.2063C64.9424 20.2305 63.9241 20.5539 62.8952 20.066C62.0688 19.6741 61.6034 18.5795 61.8435 17.5078C62.2914 15.5342 63.6655 14.4926 65.4025 13.9627C67.6575 13.2775 69.9597 13.2994 72.2287 13.9298C74.1444 14.4625 75.3591 16.0559 75.5081 18.2478C75.5852 19.3278 75.5247 20.416 75.5247 21.5005ZM67.5663 26.3886C69.4067 26.48 70.7327 25.2758 70.8589 23.3872C70.8764 23.1323 70.9789 22.7267 70.4987 22.8463C69.2271 23.1652 67.9125 23.3114 66.6926 23.8368C66.1545 24.0697 65.9187 24.4973 65.9774 25.125C66.0545 26.004 66.4463 26.3329 67.5663 26.3886Z" fill="#08A5E3"/>
<path d="M101.705 30.1155C97.1026 30.0296 93.6961 26.3329 93.7829 21.4914C93.8626 17.0254 97.5837 13.3314 101.949 13.4511C106.431 13.5726 109.882 17.3296 109.794 22.0935C109.711 26.5513 106.036 30.1968 101.705 30.1155ZM104.918 21.8861C105.057 19.9235 103.524 18.5055 101.872 18.4772C99.9622 18.4434 98.7686 19.8038 98.6205 21.675C98.4724 23.5462 99.9105 25.0373 101.755 25.0922C103.476 25.1397 104.874 23.7235 104.918 21.8861Z" fill="#08A5E3"/>
<path d="M78.0481 21.6769C78.0481 19.7655 77.9823 17.8514 78.0656 15.9436C78.1532 13.8303 79.9936 12.7997 81.5852 13.8915C81.6728 13.9537 81.7955 14.0094 81.8376 14.1008C82.3757 15.2621 82.9628 14.7495 83.7121 14.2835C85.9522 12.881 90.4331 13.0391 91.8082 16.9012C92.0895 17.6906 92.1587 18.5156 92.164 19.3389C92.185 22.019 92.185 24.6991 92.164 27.3792C92.1552 28.6711 91.5838 29.677 90.6356 29.9621C89.6873 30.2472 88.7759 30.1604 88.0608 29.3408C87.5349 28.7387 87.3789 27.995 87.3781 27.2074C87.3781 25.0959 87.3693 22.9853 87.3833 20.8738C87.3886 20.1228 87.2545 19.4055 87.0783 18.681C86.9364 18.0981 86.5595 17.8212 86.0644 17.7098C84.699 17.4019 83.4037 18.258 83.0636 19.6769C82.8568 20.5403 82.8252 21.4248 82.8182 22.3092C82.8042 24.1365 82.8182 25.9639 82.784 27.7857C82.7648 28.8346 82.2249 29.6204 81.303 29.9466C80.381 30.2728 79.4564 30.1668 78.7176 29.3673C78.1401 28.7414 78.0402 27.9584 78.0349 27.1517C78.0244 25.3243 78.0349 23.497 78.0349 21.6696L78.0481 21.6769Z" fill="#08A5E3"/>
<path d="M25.9791 21.2292C24.8021 18.7622 23.2623 16.6042 22.5778 14.0011C22.4166 13.388 22.392 12.7494 22.5936 12.1445C23.0414 10.8033 23.52 9.47295 23.9958 8.14356C24.0835 7.90326 24.2587 7.64561 24.0502 7.44186C23.8819 7.27557 23.6216 7.42541 23.4367 7.51404C22.4779 7.97088 21.6348 7.67941 20.9425 6.99325C20.2694 6.32627 20.202 5.44001 20.4587 4.52634C20.67 3.77438 21.2256 3.36871 21.8671 3.09187C24.058 2.1444 26.27 1.23529 28.4619 0.283247C30.0823 -0.42028 31.5494 0.205585 32.1295 1.93882C32.9025 4.24492 33.8928 6.47154 34.7815 8.73562C35.246 9.92339 34.8639 11.2025 33.8876 11.7973C32.8824 12.4058 31.7203 12.1135 30.8728 11.1185C30.6546 10.8617 30.616 10.2962 30.2006 10.3875C29.8807 10.4579 29.9649 10.9549 29.8501 11.2555C28.6836 14.4141 27.4917 17.5599 26.3007 20.7102C26.2499 20.8573 26.1368 20.9825 25.9791 21.2292Z" fill="#F18326"/>
</svg>
